<svg width="128" height="128" viewBox="0 0 128 128" fill="none" xmlns="http://www.w3.org/2000/svg">
<path d="M91.379 83.2116C106.131 83.2116 118.09 71.2527 118.09 56.5007C118.09 41.7487 106.131 29.7898 91.379 29.7898C76.627 29.7898 64.6681 41.7487 64.6681 56.5007C64.6681 71.2527 76.627 83.2116 91.379 83.2116Z" fill="#349C37"/>
<path d="M23.8925 79.2219C33.803 79.2219 41.837 71.1879 41.837 61.2774C41.837 51.3669 33.803 43.3329 23.8925 43.3329C13.982 43.3329 5.948 51.3669 5.948 61.2774C5.948 71.1879 13.982 79.2219 23.8925 79.2219Z" fill="#296830"/>
<path d="M49.2034 79.2219C59.1139 79.2219 67.148 71.1879 67.148 61.2774C67.148 51.3669 59.1139 43.3329 49.2034 43.3329C39.293 43.3329 31.2589 51.3669 31.2589 61.2774C31.2589 71.1879 39.293 79.2219 49.2034 79.2219Z" fill="#296830"/>
<path d="M36.5479 58.889C46.4584 58.889 54.4924 50.855 54.4924 40.9445C54.4924 31.034 46.4584 23 36.5479 23C26.6374 23 18.6034 31.034 18.6034 40.9445C18.6034 50.855 26.6374 58.889 36.5479 58.889Z" fill="#296830"/>
<path d="M37.2801 102.785C36.246 102.785 35.4042 101.943 35.4042 100.909V42.0334C35.4042 40.9994 36.246 40.1575 37.2801 40.1575C38.3141 40.1575 39.156 40.9994 39.156 42.0334V100.909C39.1468 101.943 38.3141 102.785 37.2801 102.785Z" fill="#D9C39A"/>
<path d="M38.2409 64.7821C37.5089 65.5142 36.3193 65.5142 35.5872 64.7821L24.2769 53.4627C23.5449 52.7306 23.5449 51.541 24.2769 50.809C25.009 50.0769 26.1986 50.0769 26.9306 50.809L38.2501 62.1284C38.973 62.8605 38.973 64.05 38.2409 64.7821Z" fill="#D9C39A"/>
<path d="M92.175 102.785H88.4232V46.3984C88.4232 45.3643 89.2651 44.5225 90.2991 44.5225C91.3331 44.5225 92.175 45.3643 92.175 46.3984V102.785Z" fill="white"/>
<path d="M89.8324 74.2439C90.5644 74.976 91.754 74.976 92.4861 74.2439L103.805 62.9245C104.538 62.1925 104.538 61.0029 103.805 60.2708C103.073 59.5387 101.884 59.5387 101.152 60.2708L89.8324 71.5902C89.1003 72.3223 89.1003 73.5119 89.8324 74.2439Z" fill="white"/>
<path d="M90.6192 62.3663C91.3512 61.6343 91.3512 60.4447 90.6192 59.7126L84.1313 53.2248C83.3993 52.4927 82.2097 52.4927 81.4776 53.2248C80.7456 53.9568 80.7456 55.1464 81.4776 55.8785L87.9655 62.3663C88.6975 63.0984 89.8871 63.0984 90.6192 62.3663Z" fill="white"/>
<path d="M74.203 102.785C74.3494 94.229 81.3222 87.3294 89.9148 87.3294C94.8653 87.3294 99.2851 89.6262 102.168 93.2041C103.787 92.2982 105.654 91.7858 107.64 91.7858C113.771 91.7858 118.749 96.6814 118.895 102.785H74.203Z" fill="#296830"/>
<path d="M63.4873 60.1701L43.5388 72.5327V102.785H56.423V85.3254H69.9935V102.785H82.8777V72.5327L63.4873 60.1701Z" fill="#D9C39A"/>
<path d="M49.3497 102.785C49.2398 96.4892 44.1155 91.4106 37.7923 91.4106C34.1503 91.4106 30.9018 93.1035 28.7789 95.7389C27.5893 95.0709 26.2167 94.6957 24.7526 94.6957C20.2413 94.6957 16.5718 98.3011 16.4712 102.794H49.3497V102.785Z" fill="#349C37"/>
<path d="M126.966 104.853H1.03403C0.466687 104.853 0 104.386 0 103.819C0 103.252 0.466687 102.785 1.03403 102.785H126.966C127.533 102.785 128 103.252 128 103.819C128 104.386 127.542 104.853 126.966 104.853Z" fill="#314251"/>
</svg>
