<svg width="171" height="56" viewBox="0 0 171 56" fill="none" xmlns="http://www.w3.org/2000/svg">
<path d="M55.8074 37.8562C63.3792 37.8562 69.5174 31.7181 69.5174 24.1463C69.5174 16.5745 63.3792 10.4363 55.8074 10.4363C48.2356 10.4363 42.0974 16.5745 42.0974 24.1463C42.0974 31.7181 48.2356 37.8562 55.8074 37.8562Z" fill="#349C37"/>
<path d="M21.1686 35.8084C26.2553 35.8084 30.379 31.6848 30.379 26.598C30.379 21.5112 26.2553 17.3876 21.1686 17.3876C16.0818 17.3876 11.9581 21.5112 11.9581 26.598C11.9581 31.6848 16.0818 35.8084 21.1686 35.8084Z" fill="#296830"/>
<path d="M34.1599 35.8084C39.2467 35.8084 43.3703 31.6848 43.3703 26.598C43.3703 21.5112 39.2467 17.3876 34.1599 17.3876C29.0731 17.3876 24.9495 21.5112 24.9495 26.598C24.9495 31.6848 29.0731 35.8084 34.1599 35.8084Z" fill="#296830"/>
<path d="M27.6643 25.3721C32.7511 25.3721 36.8747 21.2485 36.8747 16.1617C36.8747 11.0749 32.7511 6.95126 27.6643 6.95126C22.5775 6.95126 18.4539 11.0749 18.4539 16.1617C18.4539 21.2485 22.5775 25.3721 27.6643 25.3721Z" fill="#296830"/>
<path d="M28.04 47.9027C27.5093 47.9027 27.0771 47.4706 27.0771 46.9399V16.7206C27.0771 16.1899 27.5093 15.7578 28.04 15.7578C28.5707 15.7578 29.0028 16.1899 29.0028 16.7206V46.9399C28.9981 47.4706 28.5707 47.9027 28.04 47.9027Z" fill="#D9C39A"/>
<path d="M28.5331 28.3969C28.1574 28.7726 27.5468 28.7726 27.171 28.3969L21.3658 22.5869C20.99 22.2112 20.99 21.6006 21.3658 21.2248C21.7415 20.8491 22.3521 20.8491 22.7279 21.2248L28.5378 27.0348C28.9089 27.4105 28.9089 28.0211 28.5331 28.3969Z" fill="#D9C39A"/>
<path d="M56.2161 47.9027H54.2904V18.961C54.2904 18.4303 54.7225 17.9982 55.2533 17.9982C55.784 17.9982 56.2161 18.4303 56.2161 18.961V47.9027Z" fill="white"/>
<path d="M55.0136 33.2534C55.3894 33.6291 55.9999 33.6291 56.3757 33.2534L62.1856 27.4434C62.5614 27.0677 62.5614 26.4571 62.1856 26.0814C61.8099 25.7056 61.1993 25.7056 60.8236 26.0814L55.0136 31.8913C54.6379 32.267 54.6379 32.8776 55.0136 33.2534Z" fill="white"/>
<path d="M55.4176 27.1569C55.7934 26.7812 55.7934 26.1706 55.4176 25.7948L52.0876 22.4648C51.7119 22.0891 51.1013 22.0891 50.7255 22.4648C50.3498 22.8406 50.3498 23.4511 50.7255 23.8269L54.0556 27.1569C54.4313 27.5327 55.0419 27.5327 55.4176 27.1569Z" fill="white"/>
<path d="M46.9916 47.9027C47.0667 43.5112 50.6457 39.9698 55.056 39.9698C57.597 39.9698 59.8655 41.1487 61.345 42.9851C62.1763 42.5202 63.1345 42.2571 64.1537 42.2571C67.3006 42.2571 69.8556 44.7699 69.9308 47.9027H46.9916Z" fill="#296830"/>
<path d="M41.4916 26.0297L31.2526 32.3751V47.9027H37.8657V38.9412H44.831V47.9027H51.4441V32.3751L41.4916 26.0297Z" fill="#D9C39A"/>
<path d="M34.235 47.9027C34.1786 44.6713 31.5484 42.0646 28.3029 42.0646C26.4336 42.0646 24.7662 42.9335 23.6766 44.2862C23.066 43.9433 22.3615 43.7507 21.61 43.7507C19.2945 43.7507 17.411 45.6013 17.3594 47.9074H34.235V47.9027Z" fill="#349C37"/>
<path d="M74.0733 48.9642H9.43589C9.14469 48.9642 8.90515 48.7246 8.90515 48.4334C8.90515 48.1422 9.14469 47.9027 9.43589 47.9027H74.0733C74.3645 47.9027 74.604 48.1422 74.604 48.4334C74.604 48.7246 74.3692 48.9642 74.0733 48.9642Z" fill="#314251"/>
<path d="M85.2094 28.3546L87.9711 22.4225C87.9993 22.3709 88.0604 22.3239 88.1214 22.3239H88.2107C88.2717 22.3239 88.3328 22.3662 88.361 22.4225L91.118 28.3546C91.1697 28.4673 91.0992 28.5848 90.9677 28.5848H89.9908C89.8311 28.5848 89.7606 28.5331 89.6808 28.364L89.3614 27.6689H86.966L86.6466 28.3734C86.6044 28.4767 86.5057 28.5848 86.3272 28.5848H85.3597C85.2282 28.5848 85.1577 28.4673 85.2094 28.3546ZM88.8353 26.4665L88.1637 25.0105H88.1543L87.4921 26.4665H88.8353Z" fill="#314251"/>
<path d="M91.6628 27.744L92.0762 27.0113C92.1466 26.8986 92.3157 26.9127 92.3768 26.9597C92.4143 26.9784 93.0484 27.4434 93.6308 27.4434C93.9831 27.4434 94.2367 27.2227 94.2367 26.9127C94.2367 26.5416 93.9267 26.2598 93.3302 26.0203C92.574 25.7197 91.6206 25.1279 91.6206 24.0711C91.6206 23.1975 92.3016 22.3192 93.659 22.3192C94.5749 22.3192 95.2794 22.7842 95.5471 22.9815C95.6551 23.0425 95.6363 23.2022 95.5988 23.2633L95.1479 23.9443C95.0868 24.0429 94.9271 24.1228 94.8473 24.057C94.7674 24.0148 94.124 23.5263 93.5885 23.5263C93.2691 23.5263 93.0343 23.7376 93.0343 23.9772C93.0343 24.3013 93.2973 24.5502 93.9972 24.832C94.6829 25.1044 95.7772 25.6446 95.7772 26.8422C95.7772 27.7487 94.9929 28.6646 93.6966 28.6646C92.5505 28.6646 91.9165 28.1902 91.7145 27.9836C91.6159 27.9037 91.5877 27.8708 91.6628 27.744Z" fill="#314251"/>
<path d="M96.665 27.744L97.0783 27.0113C97.1487 26.8986 97.3178 26.9127 97.3789 26.9597C97.4164 26.9784 98.0505 27.4434 98.6329 27.4434C98.9852 27.4434 99.2388 27.2227 99.2388 26.9127C99.2388 26.5416 98.9288 26.2598 98.3323 26.0203C97.5761 25.7197 96.6227 25.1279 96.6227 24.0711C96.6227 23.1975 97.3037 22.3192 98.6611 22.3192C99.577 22.3192 100.281 22.7842 100.549 22.9815C100.657 23.0425 100.638 23.2022 100.601 23.2633L100.15 23.9443C100.089 24.0429 99.9292 24.1228 99.8494 24.057C99.7695 24.0148 99.1261 23.5263 98.5906 23.5263C98.2713 23.5263 98.0364 23.7376 98.0364 23.9772C98.0364 24.3013 98.2994 24.5502 98.9993 24.832C99.685 25.1044 100.779 25.6446 100.779 26.8422C100.779 27.7487 99.995 28.6646 98.6987 28.6646C97.5526 28.6646 96.9186 28.1902 96.7166 27.9836C96.6227 27.9037 96.5945 27.8708 96.665 27.744Z" fill="#314251"/>
<path d="M104.739 22.3239C106.5 22.3239 107.914 23.7423 107.914 25.5083C107.914 27.2696 106.505 28.674 104.739 28.674C102.973 28.674 101.573 27.2743 101.573 25.5083C101.573 23.7423 102.977 22.3239 104.739 22.3239ZM104.739 27.2603C105.706 27.2603 106.5 26.4665 106.5 25.5083C106.5 24.5408 105.706 23.7377 104.739 23.7377C103.776 23.7377 102.987 24.5408 102.987 25.5083C102.987 26.4665 103.776 27.2603 104.739 27.2603Z" fill="#314251"/>
<path d="M111.887 22.3239C112.77 22.3239 113.423 22.5963 114.02 23.1459C114.1 23.2163 114.1 23.3243 114.029 23.3948L113.343 24.1087C113.282 24.1698 113.184 24.1698 113.123 24.1087C112.798 23.8175 112.366 23.6578 111.934 23.6578C110.939 23.6578 110.206 24.4844 110.206 25.4755C110.206 26.4524 110.948 27.265 111.944 27.265C112.357 27.265 112.808 27.1147 113.123 26.8422C113.184 26.7906 113.301 26.7906 113.353 26.8516L114.038 27.5843C114.1 27.6454 114.09 27.7628 114.029 27.8239C113.428 28.4063 112.672 28.6787 111.887 28.6787C110.126 28.6787 108.703 27.279 108.703 25.513C108.703 23.7423 110.121 22.3239 111.887 22.3239Z" fill="#314251"/>
<path d="M115.26 22.5822C115.26 22.493 115.339 22.4131 115.429 22.4131H116.485C116.575 22.4131 116.654 22.493 116.654 22.5822V28.4157C116.654 28.5049 116.575 28.5847 116.485 28.5847H115.429C115.339 28.5847 115.26 28.5049 115.26 28.4157V22.5822Z" fill="#314251"/>
<path d="M117.552 28.3546L120.313 22.4225C120.341 22.3709 120.403 22.3239 120.464 22.3239H120.553C120.614 22.3239 120.675 22.3662 120.703 22.4225L123.465 28.3546C123.517 28.4673 123.446 28.5848 123.315 28.5848H122.338C122.178 28.5848 122.107 28.5331 122.028 28.364L121.708 27.6689H119.313L118.993 28.3734C118.951 28.4767 118.853 28.5848 118.674 28.5848H117.707C117.566 28.5848 117.495 28.4673 117.552 28.3546ZM121.173 26.4665L120.501 25.0105H120.492L119.83 26.4665H121.173Z" fill="#314251"/>
<path d="M124.827 23.7095H123.568C123.47 23.7095 123.399 23.6296 123.399 23.5404V22.5775C123.399 22.4883 123.47 22.4084 123.568 22.4084H127.481C127.579 22.4084 127.65 22.4883 127.65 22.5775V23.5404C127.65 23.6296 127.579 23.7095 127.481 23.7095H126.222V28.4157C126.222 28.5049 126.142 28.5847 126.053 28.5847H124.996C124.907 28.5847 124.827 28.5049 124.827 28.4157V23.7095Z" fill="#314251"/>
<path d="M128.707 22.5822C128.707 22.493 128.786 22.4131 128.876 22.4131H129.932C130.022 22.4131 130.101 22.493 130.101 22.5822V28.4157C130.101 28.5049 130.022 28.5847 129.932 28.5847H128.876C128.786 28.5847 128.707 28.5049 128.707 28.4157V22.5822Z" fill="#314251"/>
<path d="M134.507 22.3239C136.268 22.3239 137.682 23.7423 137.682 25.5083C137.682 27.2696 136.273 28.674 134.507 28.674C132.741 28.674 131.341 27.2743 131.341 25.5083C131.341 23.7423 132.741 22.3239 134.507 22.3239ZM134.507 27.2603C135.475 27.2603 136.268 26.4665 136.268 25.5083C136.268 24.5408 135.475 23.7377 134.507 23.7377C133.544 23.7377 132.755 24.5408 132.755 25.5083C132.75 26.4665 133.544 27.2603 134.507 27.2603Z" fill="#314251"/>
<path d="M138.913 22.4836C138.913 22.3944 138.993 22.3239 139.082 22.3239H139.303L142.82 25.7103H142.83V22.5822C142.83 22.493 142.9 22.4132 142.999 22.4132H144.056C144.145 22.4132 144.225 22.493 144.225 22.5822V28.5143C144.225 28.6035 144.145 28.674 144.056 28.674H143.915C143.887 28.674 143.816 28.6458 143.802 28.6317L140.322 25.1326H140.312V28.4204C140.312 28.5096 140.242 28.5895 140.143 28.5895H139.096C139.007 28.5895 138.927 28.5096 138.927 28.4204L138.913 22.4836Z" fill="#314251"/>
<path d="M85.2281 42.9617C85.2281 42.8724 85.2986 42.7926 85.3878 42.7926H87.539C89.2392 42.7926 90.6342 44.1781 90.6342 45.869C90.6342 47.5786 89.2392 48.9642 87.539 48.9642H85.3878C85.2986 48.9642 85.2281 48.8843 85.2281 48.7951V42.9617ZM87.4497 47.6585C88.4455 47.6585 89.1688 46.8741 89.1688 45.869C89.1688 44.8733 88.4455 44.0889 87.4497 44.0889H86.6043V47.6585H87.4497Z" fill="#314251"/>
<path d="M91.7943 42.9617C91.7943 42.8724 91.8742 42.7926 91.9634 42.7926H93.0484C93.147 42.7926 93.2174 42.8724 93.2174 42.9617V46.5312C93.2174 47.1465 93.6777 47.6397 94.3024 47.6397C94.9365 47.6397 95.4062 47.1465 95.4062 46.5312V42.9617C95.4062 42.8724 95.4766 42.7926 95.5752 42.7926H96.6602C96.7494 42.7926 96.8293 42.8724 96.8293 42.9617V46.6017C96.8293 47.9403 95.702 49.0534 94.3071 49.0534C92.9215 49.0534 91.8037 47.945 91.8037 46.6017V42.9617H91.7943Z" fill="#314251"/>
<path d="M103.09 42.7033C103.973 42.7033 104.626 42.9758 105.222 43.5253C105.302 43.5957 105.302 43.7038 105.232 43.7742L104.546 44.4881C104.485 44.5492 104.386 44.5492 104.325 44.4881C104.001 44.1969 103.569 44.0372 103.137 44.0372C102.141 44.0372 101.409 44.8639 101.409 45.8549C101.409 46.8318 102.151 47.6444 103.146 47.6444C103.56 47.6444 104.011 47.4941 104.325 47.2217C104.386 47.17 104.504 47.17 104.555 47.2311L105.241 47.9638C105.302 48.0248 105.293 48.1422 105.232 48.2033C104.631 48.7857 103.874 49.0581 103.09 49.0581C101.329 49.0581 99.9056 47.6585 99.9056 45.8925C99.9103 44.1265 101.329 42.7033 103.09 42.7033Z" fill="#314251"/>
<path d="M106.462 42.9617C106.462 42.8724 106.542 42.7926 106.631 42.7926H107.679C107.778 42.7926 107.848 42.8724 107.848 42.9617V45.1832H110.37V42.9617C110.37 42.8724 110.441 42.7926 110.539 42.7926H111.587C111.676 42.7926 111.756 42.8724 111.756 42.9617V48.7951C111.756 48.8843 111.676 48.9642 111.587 48.9642H110.539C110.441 48.9642 110.37 48.8843 110.37 48.7951V46.4749H107.848V48.7951C107.848 48.8843 107.778 48.9642 107.679 48.9642H106.631C106.542 48.9642 106.462 48.8843 106.462 48.7951V42.9617Z" fill="#314251"/>
<path d="M112.648 48.734L115.41 42.802C115.438 42.7503 115.499 42.7033 115.56 42.7033H115.649C115.71 42.7033 115.771 42.7456 115.8 42.802L118.561 48.734C118.613 48.8468 118.543 48.9642 118.411 48.9642H117.434C117.274 48.9642 117.204 48.9125 117.124 48.7434L116.805 48.0483H114.409L114.09 48.7528C114.048 48.8562 113.949 48.9642 113.771 48.9642H112.803C112.667 48.9642 112.596 48.8515 112.648 48.734ZM116.274 46.8506L115.602 45.3946H115.593L114.931 46.8506H116.274Z" fill="#314251"/>
<path d="M120.06 42.8442C120.069 42.7644 120.149 42.7033 120.219 42.7033H120.36C120.403 42.7033 120.482 42.7409 120.511 42.7926L122.554 46.6017H122.572L124.616 42.7926C124.644 42.7409 124.724 42.7033 124.766 42.7033H124.907C124.977 42.7033 125.057 42.7644 125.066 42.8442L126.062 48.7669C126.081 48.8796 126.001 48.9595 125.893 48.9595H124.855C124.775 48.9595 124.695 48.889 124.686 48.8186L124.291 46.0944H124.273L122.793 48.9501C122.765 49.0018 122.685 49.0487 122.643 49.0487H122.483C122.432 49.0487 122.361 49.0065 122.333 48.9501L120.844 46.0944H120.825L120.435 48.8186C120.426 48.889 120.356 48.9595 120.266 48.9595H119.228C119.125 48.9595 119.045 48.8796 119.059 48.7669L120.06 42.8442Z" fill="#314251"/>
<path d="M127.368 42.9617C127.368 42.8724 127.438 42.7926 127.537 42.7926H129.66C130.745 42.7926 131.633 43.6756 131.633 44.7417C131.633 45.8361 130.74 46.7238 129.665 46.7238H128.739V48.7951C128.739 48.8843 128.659 48.9642 128.57 48.9642H127.532C127.434 48.9642 127.363 48.8843 127.363 48.7951V42.9617H127.368ZM129.58 45.4369C129.96 45.4369 130.275 45.1363 130.275 44.7417C130.275 44.3707 129.956 44.0889 129.58 44.0889H128.744V45.4369H129.58Z" fill="#314251"/>
<path d="M134.681 42.9617C134.681 42.8724 134.751 42.7926 134.85 42.7926H135.897C135.986 42.7926 136.066 42.8724 136.066 42.9617V47.6679H138.166C138.264 47.6679 138.335 47.7477 138.335 47.8369V48.7998C138.335 48.889 138.264 48.9689 138.166 48.9689H134.85C134.751 48.9689 134.681 48.889 134.681 48.7998V42.9617Z" fill="#314251"/>
<path d="M142.041 42.7033C143.802 42.7033 145.216 44.1218 145.216 45.8878C145.216 47.6491 143.807 49.0534 142.041 49.0534C140.275 49.0534 138.875 47.6538 138.875 45.8878C138.875 44.1265 140.275 42.7033 142.041 42.7033ZM142.041 47.6397C143.008 47.6397 143.802 46.8459 143.802 45.8878C143.802 44.9202 143.008 44.1171 142.041 44.1171C141.078 44.1171 140.289 44.9202 140.289 45.8878C140.284 46.8506 141.078 47.6397 142.041 47.6397Z" fill="#314251"/>
<path d="M146.366 42.9617C146.366 42.8724 146.446 42.7926 146.536 42.7926H147.62C147.719 42.7926 147.79 42.8724 147.79 42.9617V46.5312C147.79 47.1465 148.25 47.6397 148.875 47.6397C149.509 47.6397 149.978 47.1465 149.978 46.5312V42.9617C149.978 42.8724 150.049 42.7926 150.147 42.7926H151.232C151.322 42.7926 151.401 42.8724 151.401 42.9617V46.6017C151.401 47.9403 150.274 49.0534 148.879 49.0534C147.494 49.0534 146.376 47.945 146.376 46.6017V42.9617H146.366Z" fill="#314251"/>
<path d="M152.984 42.9617C152.984 42.8724 153.055 42.7926 153.153 42.7926H156.803C156.901 42.7926 156.972 42.8724 156.972 42.9617V43.9245C156.972 44.0137 156.901 44.0936 156.803 44.0936H154.36V45.1879H156.371C156.46 45.1879 156.54 45.2678 156.54 45.357V46.3199C156.54 46.4185 156.46 46.489 156.371 46.489H154.36V47.6772H156.803C156.901 47.6772 156.972 47.7571 156.972 47.8463V48.8092C156.972 48.8984 156.901 48.9783 156.803 48.9783H153.153C153.055 48.9783 152.984 48.8984 152.984 48.8092V42.9617Z" fill="#314251"/>
<path d="M159.114 44.0889H157.855C157.756 44.0889 157.686 44.0091 157.686 43.9198V42.957C157.686 42.8677 157.756 42.7879 157.855 42.7879H161.767C161.866 42.7879 161.936 42.8677 161.936 42.957V43.9198C161.936 44.0091 161.866 44.0889 161.767 44.0889H160.509V48.7951C160.509 48.8843 160.429 48.9642 160.339 48.9642H159.283C159.193 48.9642 159.114 48.8843 159.114 48.7951V44.0889Z" fill="#314251"/>
<path d="M85.0685 33.7982C85.0685 33.7277 85.1248 33.6667 85.1953 33.6667H86.8861C88.2247 33.6667 89.3191 34.7563 89.3191 36.0855C89.3191 37.4335 88.2247 38.5185 86.8861 38.5185H85.1953C85.1248 38.5185 85.0685 38.4574 85.0685 38.387V33.7982ZM86.8157 37.4946C87.6001 37.4946 88.1684 36.8793 88.1684 36.0855C88.1684 35.3012 87.6001 34.6859 86.8157 34.6859H86.1487V37.4946H86.8157Z" fill="#349C37"/>
<path d="M90.3054 33.7982C90.3054 33.7277 90.3618 33.6667 90.4369 33.6667H93.3114C93.3865 33.6667 93.4429 33.7277 93.4429 33.7982V34.5544C93.4429 34.6248 93.3865 34.6859 93.3114 34.6859H91.3904V35.5454H92.9732C93.0437 35.5454 93.1047 35.6065 93.1047 35.6769V36.4331C93.1047 36.5083 93.0437 36.5646 92.9732 36.5646H91.3904V37.4993H93.3114C93.3865 37.4993 93.4429 37.5603 93.4429 37.6308V38.387C93.4429 38.4574 93.3865 38.5185 93.3114 38.5185H90.4369C90.3618 38.5185 90.3054 38.4574 90.3054 38.387V33.7982Z" fill="#349C37"/>
<path d="M94.2319 37.8609L94.556 37.2832C94.6124 37.194 94.7439 37.2081 94.7908 37.241C94.819 37.255 95.3169 37.6214 95.7772 37.6214C96.0543 37.6214 96.2562 37.4476 96.2562 37.2034C96.2562 36.9122 96.012 36.6914 95.5423 36.5036C94.9458 36.2687 94.1943 35.8037 94.1943 34.9724C94.1943 34.2867 94.7298 33.5915 95.7959 33.5915C96.5193 33.5915 97.0735 33.9579 97.2801 34.1129C97.3647 34.1599 97.3506 34.2867 97.3224 34.3336L96.9701 34.8691C96.9232 34.9442 96.7964 35.01 96.7353 34.9583C96.6743 34.9254 96.167 34.5403 95.7443 34.5403C95.4954 34.5403 95.3075 34.7047 95.3075 34.8926C95.3075 35.1509 95.5141 35.3434 96.0637 35.5642C96.6038 35.7803 97.4633 36.203 97.4633 37.147C97.4633 37.8609 96.848 38.5842 95.8241 38.5842C94.9223 38.5842 94.4245 38.2085 94.2648 38.0488C94.199 37.9877 94.1755 37.9596 94.2319 37.8609Z" fill="#349C37"/>
<path d="M99.9856 33.7982C99.9856 33.7277 100.042 33.6667 100.117 33.6667H102.193C103.024 33.6667 103.705 34.3383 103.705 35.165C103.705 35.8037 103.283 36.3157 102.677 36.5599L103.626 38.3212C103.673 38.4105 103.626 38.5232 103.508 38.5232H102.588C102.531 38.5232 102.489 38.4903 102.475 38.4621L101.554 36.6257H101.075V38.3964C101.075 38.4668 101.014 38.5279 100.944 38.5279H100.117C100.042 38.5279 99.9856 38.4668 99.9856 38.3964V33.7982ZM102.099 35.738C102.386 35.738 102.625 35.475 102.625 35.1838C102.625 34.8926 102.381 34.6577 102.099 34.6577H101.071V35.738H102.099Z" fill="#349C37"/>
<path d="M104.772 33.7982C104.772 33.7277 104.833 33.6667 104.903 33.6667H105.734C105.805 33.6667 105.866 33.7277 105.866 33.7982V38.3917C105.866 38.4621 105.805 38.5232 105.734 38.5232H104.903C104.833 38.5232 104.772 38.4621 104.772 38.3917V33.7982Z" fill="#349C37"/>
<path d="M106.575 33.8452C106.533 33.7559 106.589 33.6667 106.693 33.6667H107.613C107.67 33.6667 107.716 33.709 107.731 33.7418L108.877 36.2734H108.919L110.065 33.7418C110.079 33.709 110.126 33.6667 110.182 33.6667H111.103C111.206 33.6667 111.263 33.7559 111.22 33.8452L109.046 38.5138C109.027 38.5561 108.985 38.5889 108.928 38.5889H108.858C108.801 38.5889 108.759 38.5561 108.74 38.5138L106.575 33.8452Z" fill="#349C37"/>
<path d="M111.934 33.7982C111.934 33.7277 111.991 33.6667 112.066 33.6667H114.94C115.015 33.6667 115.072 33.7277 115.072 33.7982V34.5544C115.072 34.6248 115.015 34.6859 114.94 34.6859H113.019V35.5454H114.602C114.672 35.5454 114.733 35.6065 114.733 35.6769V36.4331C114.733 36.5083 114.672 36.5646 114.602 36.5646H113.019V37.4993H114.94C115.015 37.4993 115.072 37.5603 115.072 37.6308V38.387C115.072 38.4574 115.015 38.5185 114.94 38.5185H112.066C111.991 38.5185 111.934 38.4574 111.934 38.387V33.7982Z" fill="#349C37"/>
<path d="M116.138 33.7982C116.138 33.7277 116.194 33.6667 116.269 33.6667H118.345C119.177 33.6667 119.858 34.3383 119.858 35.165C119.858 35.8037 119.435 36.3157 118.829 36.5599L119.778 38.3212C119.825 38.4105 119.778 38.5232 119.66 38.5232H118.74C118.683 38.5232 118.641 38.4903 118.627 38.4621L117.707 36.6257H117.227V38.3964C117.227 38.4668 117.166 38.5279 117.096 38.5279H116.269C116.194 38.5279 116.138 38.4668 116.138 38.3964V33.7982ZM118.256 35.738C118.543 35.738 118.782 35.475 118.782 35.1838C118.782 34.8926 118.538 34.6577 118.256 34.6577H117.227V35.738H118.256Z" fill="#349C37"/>
<path d="M120.304 38.34L122.474 33.6714C122.493 33.6291 122.544 33.5962 122.591 33.5962H122.662C122.709 33.5962 122.76 33.6291 122.779 33.6714L124.949 38.34C124.991 38.4292 124.935 38.5185 124.832 38.5185H124.061C123.935 38.5185 123.883 38.4762 123.817 38.3447L123.568 37.7952H121.68L121.431 38.3494C121.398 38.4339 121.318 38.5138 121.182 38.5138H120.421C120.318 38.5232 120.262 38.4339 120.304 38.34ZM123.155 36.8558L122.629 35.7098H122.624L122.103 36.8558H123.155Z" fill="#349C37"/>
<path d="M125.658 33.7982C125.658 33.7277 125.719 33.6667 125.79 33.6667H126.621C126.692 33.6667 126.753 33.7277 126.753 33.7982V38.3917C126.753 38.4621 126.692 38.5232 126.621 38.5232H125.79C125.719 38.5232 125.658 38.4621 125.658 38.3917V33.7982Z" fill="#349C37"/>
<path d="M128.082 33.7231C128.082 33.6526 128.143 33.5962 128.213 33.5962H128.387L131.153 36.2593H131.158V33.7982C131.158 33.7277 131.215 33.6667 131.29 33.6667H132.121C132.191 33.6667 132.253 33.7277 132.253 33.7982V38.4668C132.253 38.5373 132.191 38.5936 132.121 38.5936H132.008C131.99 38.5936 131.933 38.5748 131.919 38.5608L129.181 35.8084H129.176V38.3964C129.176 38.4668 129.12 38.5279 129.045 38.5279H128.218C128.148 38.5279 128.086 38.4668 128.086 38.3964L128.082 33.7231Z" fill="#349C37"/>
<path d="M133.314 37.8609L133.638 37.2832C133.694 37.194 133.826 37.2081 133.873 37.241C133.901 37.255 134.399 37.6214 134.859 37.6214C135.136 37.6214 135.338 37.4476 135.338 37.2034C135.338 36.9122 135.094 36.6914 134.624 36.5036C134.028 36.2687 133.276 35.8037 133.276 34.9724C133.276 34.2867 133.812 33.5915 134.878 33.5915C135.601 33.5915 136.156 33.9579 136.362 34.1129C136.447 34.1599 136.433 34.2867 136.405 34.3336L136.052 34.8691C136.005 34.9442 135.879 35.01 135.817 34.9583C135.756 34.9254 135.249 34.5403 134.826 34.5403C134.577 34.5403 134.39 34.7047 134.39 34.8926C134.39 35.1509 134.596 35.3434 135.146 35.5642C135.686 35.7803 136.545 36.203 136.545 37.147C136.545 37.8609 135.93 38.5842 134.906 38.5842C134.004 38.5842 133.507 38.2085 133.347 38.0488C133.276 37.9877 133.258 37.9596 133.314 37.8609Z" fill="#349C37"/>
</svg>
